<?xml version="1.0" encoding="UTF-8" standalone="no"?>
<!-- Created with Inkscape (http://www.inkscape.org/) -->

<svg
   xmlns:osb="http://www.openswatchbook.org/uri/2009/osb"
   xmlns:dc="http://purl.org/dc/elements/1.1/"
   xmlns:cc="http://creativecommons.org/ns#"
   xmlns:rdf="http://www.w3.org/1999/02/22-rdf-syntax-ns#"
   xmlns:svg="http://www.w3.org/2000/svg"
   xmlns="http://www.w3.org/2000/svg"
   xmlns:xlink="http://www.w3.org/1999/xlink"
   xmlns:sodipodi="http://sodipodi.sourceforge.net/DTD/sodipodi-0.dtd"
   xmlns:inkscape="http://www.inkscape.org/namespaces/inkscape"
   width="210mm"
   height="297mm"
   viewBox="0 0 744.09448819 1052.3622047"
   id="svg2"
   version="1.1"
   inkscape:version="0.91 r13725"
   sodipodi:docname="civcom-logo-final.svg">
  <sodipodi:namedview
     id="base"
     pagecolor="#ffffff"
     bordercolor="#666666"
     borderopacity="1.0"
     inkscape:pageopacity="0.0"
     inkscape:pageshadow="2"
     inkscape:zoom="1"
     inkscape:cx="304.39424"
     inkscape:cy="777.84425"
     inkscape:document-units="px"
     inkscape:current-layer="layer1"
     showgrid="false"
     showguides="false"
     inkscape:guide-bbox="true"
     inkscape:snap-nodes="true"
     inkscape:object-paths="true"
     inkscape:snap-intersection-paths="true"
     inkscape:object-nodes="true"
     inkscape:snap-smooth-nodes="true"
     inkscape:snap-midpoints="true"
     inkscape:window-width="1920"
     inkscape:window-height="1013"
     inkscape:window-x="-9"
     inkscape:window-y="-9"
     inkscape:window-maximized="1">
    <inkscape:grid
       id="grid4163"
       type="xygrid" />
  </sodipodi:namedview>
  <defs
     id="defs4">
    <linearGradient
       inkscape:collect="always"
       id="linearGradient4585">
      <stop
         style="stop-color:#000000;stop-opacity:1;"
         offset="0"
         id="stop4587" />
      <stop
         style="stop-color:#000000;stop-opacity:0;"
         offset="1"
         id="stop4589" />
    </linearGradient>
    <linearGradient
       id="linearGradient4569"
       osb:paint="solid">
      <stop
         style="stop-color:#000000;stop-opacity:1;"
         offset="0"
         id="stop4571" />
    </linearGradient>
    <radialGradient
       inkscape:collect="always"
       xlink:href="#linearGradient4585"
       id="radialGradient4593"
       cx="399.5"
       cy="494.36218"
       fx="399.5"
       fy="494.36218"
       r="110.5"
       gradientUnits="userSpaceOnUse"
       gradientTransform="matrix(1.0511932,0,0,1.0511932,-30.451699,-35.308002)" />
  </defs>
  <metadata
     id="metadata7">
    <rdf:RDF>
      <cc:Work
         rdf:about="">
        <dc:format>image/svg+xml</dc:format>
        <dc:type
           rdf:resource="http://purl.org/dc/dcmitype/StillImage" />
        <dc:title></dc:title>
      </cc:Work>
    </rdf:RDF>
  </metadata>
  <g
     id="layer1"
     inkscape:groupmode="layer"
     inkscape:label="Layer 1">
    <g
       id="g4356"
       transform="translate(-35.001786,-70.710678)" />
    <g
       transform="translate(155.98922,270)"
       id="g4421" />
    <circle
       style="opacity:1;fill:url(#radialGradient4593);fill-opacity:1;fill-rule:evenodd;stroke:none;stroke-width:1;stroke-linecap:butt;stroke-linejoin:miter;stroke-miterlimit:4;stroke-dasharray:none;stroke-dashoffset:0;stroke-opacity:1"
       id="path4559"
       r="116.15685"
       cy="484.36218"
       cx="389.5"
       inkscape:export-xdpi="969.20001"
       inkscape:export-ydpi="969.20001" />
    <g
       id="g4442"
       transform="matrix(3.4945759,0,0,3.4945759,-1198.2435,-2330.9177)"
       inkscape:export-xdpi="969.20001"
       inkscape:export-ydpi="969.20001">
      <g
         id="g4385"
         transform="translate(155.98922,270)">
        <path
           sodipodi:nodetypes="ccccccccc"
           inkscape:connector-curvature="0"
           id="path4387"
           d="m 292,522.36221 -17.98922,-10e-6 10,25.00001 7.98922,0 0,-5.00001 -4,0 -6,-15 10,0 z"
           style="fill:none;fill-rule:evenodd;stroke:#000000;stroke-width:1px;stroke-linecap:butt;stroke-linejoin:miter;stroke-opacity:1" />
        <path
           inkscape:connector-curvature="0"
           id="path4389"
           d="m 295,522.36221 0,25 5,0 0,-25 z"
           style="fill:none;fill-rule:evenodd;stroke:#000000;stroke-width:1px;stroke-linecap:butt;stroke-linejoin:miter;stroke-opacity:1" />
        <path
           style="fill:none;fill-rule:evenodd;stroke:#000000;stroke-width:1px;stroke-linecap:butt;stroke-linejoin:miter;stroke-opacity:1"
           d="m 313,522.36221 9.98922,-10e-6 -10,25.00001 -9.98922,0 0,-5.00001 0,-19.99999 5,0 0,19.99999 1,0 6,-15 -2,0 z"
           id="path4391"
           inkscape:connector-curvature="0"
           sodipodi:nodetypes="cccccccccccc" />
      </g>
      <rect
         style="opacity:1;fill:#000000;fill-opacity:1;fill-rule:evenodd;stroke:none;stroke-width:1;stroke-linecap:butt;stroke-linejoin:miter;stroke-miterlimit:4;stroke-dasharray:none;stroke-dashoffset:0;stroke-opacity:1"
         id="rect4393"
         width="28.928087"
         height="6.6832552"
         x="440"
         y="818.65552" />
      <g
         style="font-style:normal;font-weight:normal;font-size:15px;line-height:125%;font-family:sans-serif;letter-spacing:0px;word-spacing:0px;fill:#ffffff;fill-opacity:1;stroke:none;stroke-width:1px;stroke-linecap:butt;stroke-linejoin:miter;stroke-opacity:1"
         id="g4395"
         transform="translate(106.66294,-120.97143)">
        <path
           d="m 341.27371,945.48016 q -0.49438,0.23804 -0.90332,0.23804 -0.81787,0 -1.19629,-0.67139 -0.37841,-0.67138 -0.37841,-2.11181 0,-1.53198 0.48217,-2.12403 0.48218,-0.59204 1.12305,-0.59204 0.31738,0 0.8606,0.18921 l 0,0.84839 q -0.35401,-0.15869 -0.56153,-0.15869 -0.43335,0 -0.62866,0.46997 -0.19531,0.46387 -0.19531,1.46484 0,1.81275 0.78735,1.81275 0.22583,0 0.61035,-0.18921 l 0,0.82397 z"
           style="font-style:normal;font-variant:normal;font-weight:normal;font-stretch:normal;font-size:12.5px;font-family:'Tw Cen MT Condensed';-inkscape-font-specification:'Tw Cen MT Condensed, ';letter-spacing:2.20000005px;fill:#ffffff;fill-opacity:1"
           id="path4397"
           inkscape:connector-curvature="0" />
        <path
           d="m 346.12874,940.21893 q 0.76294,0 1.22681,0.57984 0.46387,0.57983 0.46387,2.24609 0,1.5625 -0.48828,2.11792 -0.48218,0.55542 -1.19019,0.55542 -0.88501,0 -1.31226,-0.66528 -0.42724,-0.66529 -0.42724,-2.04468 0,-1.69067 0.48828,-2.23999 0.48828,-0.54932 1.2146,-0.54932 l 0.0244,0 z m 0.62866,3.07617 q 0,-1.36108 -0.12817,-1.80664 -0.12817,-0.44555 -0.51269,-0.44555 -0.36622,0 -0.50049,0.3479 -0.13428,0.3479 -0.13428,1.17798 0,1.61743 0.14648,1.97754 0.15259,0.3601 0.50049,0.3601 0.37232,0 0.50049,-0.3601 0.12817,-0.36622 0.12817,-1.25123 z"
           style="font-style:normal;font-variant:normal;font-weight:normal;font-stretch:normal;font-size:12.5px;font-family:'Tw Cen MT Condensed';-inkscape-font-specification:'Tw Cen MT Condensed, ';letter-spacing:2.20000005px;fill:#ffffff;fill-opacity:1"
           id="path4399"
           inkscape:connector-curvature="0" />
        <path
           d="m 356.80653,945.64496 -1.00098,0 0,-3.88794 q 0,-0.77515 -0.59814,-0.77515 -0.64698,0 -0.64698,0.92774 l 0,3.73535 -0.98877,0 0,-3.96118 q 0,-0.29908 -0.1709,-0.50049 -0.16479,-0.20142 -0.42114,-0.20142 -0.65918,0 -0.65918,0.84839 l 0,3.8147 -1.00097,0 0,-5.33447 1.01318,0 0,0.48217 q 0.47607,-0.57373 1.11084,-0.57373 0.71411,0 1.0376,0.66529 0.50049,-0.65308 1.20239,-0.65308 1.12305,0 1.12305,1.28784 l 0,4.12598 z"
           style="font-style:normal;font-variant:normal;font-weight:normal;font-stretch:normal;font-size:12.5px;font-family:'Tw Cen MT Condensed';-inkscape-font-specification:'Tw Cen MT Condensed, ';letter-spacing:2.20000005px;fill:#ffffff;fill-opacity:1"
           id="path4401"
           inkscape:connector-curvature="0" />
      </g>
      <g
         transform="translate(155.98922,270)"
         id="g4403">
        <path
           style="fill:none;fill-rule:evenodd;stroke:#000000;stroke-width:1px;stroke-linecap:butt;stroke-linejoin:miter;stroke-opacity:1"
           d="m 292,522.36221 -17.98922,-10e-6 10,25.00001 7.98922,0 0,-5.00001 -4,0 -6,-15 10,0 z"
           id="path4405"
           inkscape:connector-curvature="0"
           sodipodi:nodetypes="ccccccccc" />
        <path
           style="fill:none;fill-rule:evenodd;stroke:#000000;stroke-width:1px;stroke-linecap:butt;stroke-linejoin:miter;stroke-opacity:1"
           d="m 295,522.36221 0,25 5,0 0,-25 z"
           id="path4407"
           inkscape:connector-curvature="0" />
        <path
           sodipodi:nodetypes="cccccccccccc"
           inkscape:connector-curvature="0"
           id="path4409"
           d="m 313,522.36221 9.98922,-10e-6 -10,25.00001 -9.98922,0 0,-5.00001 0,-19.99999 5,0 0,19.99999 1,0 6,-15 -2,0 z"
           style="fill:none;fill-rule:evenodd;stroke:#000000;stroke-width:1px;stroke-linecap:butt;stroke-linejoin:miter;stroke-opacity:1" />
      </g>
      <rect
         y="818.65552"
         x="440"
         height="6.6832552"
         width="28.928087"
         id="rect4411"
         style="opacity:1;fill:#000000;fill-opacity:1;fill-rule:evenodd;stroke:none;stroke-width:1;stroke-linecap:butt;stroke-linejoin:miter;stroke-miterlimit:4;stroke-dasharray:none;stroke-dashoffset:0;stroke-opacity:1" />
      <g
         transform="translate(106.66294,-120.97143)"
         id="g4413"
         style="font-style:normal;font-weight:normal;font-size:15px;line-height:125%;font-family:sans-serif;letter-spacing:0px;word-spacing:0px;fill:#ffffff;fill-opacity:1;stroke:none;stroke-width:1px;stroke-linecap:butt;stroke-linejoin:miter;stroke-opacity:1">
        <path
           inkscape:connector-curvature="0"
           id="path4415"
           style="font-style:normal;font-variant:normal;font-weight:normal;font-stretch:normal;font-size:12.5px;font-family:'Tw Cen MT Condensed';-inkscape-font-specification:'Tw Cen MT Condensed, ';letter-spacing:2.20000005px;fill:#ffffff;fill-opacity:1"
           d="m 341.27371,945.48016 q -0.49438,0.23804 -0.90332,0.23804 -0.81787,0 -1.19629,-0.67139 -0.37841,-0.67138 -0.37841,-2.11181 0,-1.53198 0.48217,-2.12403 0.48218,-0.59204 1.12305,-0.59204 0.31738,0 0.8606,0.18921 l 0,0.84839 q -0.35401,-0.15869 -0.56153,-0.15869 -0.43335,0 -0.62866,0.46997 -0.19531,0.46387 -0.19531,1.46484 0,1.81275 0.78735,1.81275 0.22583,0 0.61035,-0.18921 l 0,0.82397 z" />
        <path
           inkscape:connector-curvature="0"
           id="path4417"
           style="font-style:normal;font-variant:normal;font-weight:normal;font-stretch:normal;font-size:12.5px;font-family:'Tw Cen MT Condensed';-inkscape-font-specification:'Tw Cen MT Condensed, ';letter-spacing:2.20000005px;fill:#ffffff;fill-opacity:1"
           d="m 346.12874,940.21893 q 0.76294,0 1.22681,0.57984 0.46387,0.57983 0.46387,2.24609 0,1.5625 -0.48828,2.11792 -0.48218,0.55542 -1.19019,0.55542 -0.88501,0 -1.31226,-0.66528 -0.42724,-0.66529 -0.42724,-2.04468 0,-1.69067 0.48828,-2.23999 0.48828,-0.54932 1.2146,-0.54932 l 0.0244,0 z m 0.62866,3.07617 q 0,-1.36108 -0.12817,-1.80664 -0.12817,-0.44555 -0.51269,-0.44555 -0.36622,0 -0.50049,0.3479 -0.13428,0.3479 -0.13428,1.17798 0,1.61743 0.14648,1.97754 0.15259,0.3601 0.50049,0.3601 0.37232,0 0.50049,-0.3601 0.12817,-0.36622 0.12817,-1.25123 z" />
        <path
           inkscape:connector-curvature="0"
           id="path4419"
           style="font-style:normal;font-variant:normal;font-weight:normal;font-stretch:normal;font-size:12.5px;font-family:'Tw Cen MT Condensed';-inkscape-font-specification:'Tw Cen MT Condensed, ';letter-spacing:2.20000005px;fill:#ffffff;fill-opacity:1"
           d="m 356.80653,945.64496 -1.00098,0 0,-3.88794 q 0,-0.77515 -0.59814,-0.77515 -0.64698,0 -0.64698,0.92774 l 0,3.73535 -0.98877,0 0,-3.96118 q 0,-0.29908 -0.1709,-0.50049 -0.16479,-0.20142 -0.42114,-0.20142 -0.65918,0 -0.65918,0.84839 l 0,3.8147 -1.00097,0 0,-5.33447 1.01318,0 0,0.48217 q 0.47607,-0.57373 1.11084,-0.57373 0.71411,0 1.0376,0.66529 0.50049,-0.65308 1.20239,-0.65308 1.12305,0 1.12305,1.28784 l 0,4.12598 z" />
      </g>
      <path
         sodipodi:nodetypes="ccccccccc"
         inkscape:connector-curvature="0"
         id="path4423"
         d="m 292,522.36221 -17.98922,-10e-6 10,25.00001 7.98922,0 0,-5.00001 -4,0 -6,-15 10,0 z"
         style="fill:#ffffff;fill-opacity:1;fill-rule:evenodd;stroke:#000000;stroke-width:1px;stroke-linecap:butt;stroke-linejoin:miter;stroke-opacity:1"
         transform="translate(155.98922,270)" />
      <path
         inkscape:connector-curvature="0"
         id="path4425"
         d="m 295,522.36221 0,25 5,0 0,-25 z"
         style="fill:#ffffff;fill-opacity:1;fill-rule:evenodd;stroke:#000000;stroke-width:1px;stroke-linecap:butt;stroke-linejoin:miter;stroke-opacity:1"
         transform="translate(155.98922,270)" />
      <path
         style="fill:#ffffff;fill-opacity:1;fill-rule:evenodd;stroke:#000000;stroke-width:1;stroke-linecap:butt;stroke-linejoin:miter;stroke-miterlimit:4;stroke-dasharray:none;stroke-dashoffset:0;stroke-opacity:1"
         d="m 313,522.36221 9.98922,-10e-6 -10,25.00001 -9.98922,0 0,-5.00001 0,-19.99999 5,0 0,19.99999 1,0 6,-15 -2,0 z"
         id="path4427"
         inkscape:connector-curvature="0"
         sodipodi:nodetypes="cccccccccccc"
         transform="translate(155.98922,270)" />
      <rect
         style="opacity:1;fill:#000000;fill-opacity:1;fill-rule:evenodd;stroke:none;stroke-width:1;stroke-linecap:butt;stroke-linejoin:miter;stroke-miterlimit:4;stroke-dasharray:none;stroke-dashoffset:0;stroke-opacity:1"
         id="rect4429"
         width="28.928087"
         height="6.6832552"
         x="440"
         y="818.65552" />
      <g
         transform="matrix(0.98274503,0,0,0.98274503,109.06449,-25.126266)"
         id="g4431"
         style="font-style:normal;font-weight:normal;font-size:15px;line-height:0%;font-family:sans-serif;letter-spacing:0px;word-spacing:0px;fill:#ffffff;fill-opacity:1;stroke:none;stroke-width:1px;stroke-linecap:butt;stroke-linejoin:miter;stroke-opacity:1">
        <path
           inkscape:connector-curvature="0"
           id="path4433"
           style="font-style:normal;font-variant:normal;font-weight:normal;font-stretch:normal;font-size:12.5px;line-height:0%;font-family:ISOCTEUR;-inkscape-font-specification:ISOCTEUR;letter-spacing:0px;fill:#ffffff;fill-opacity:1;stroke:none;stroke-width:0.2035116;stroke-miterlimit:4;stroke-dasharray:none;stroke-opacity:1"
           d="m 342.15671,860.78864 0,2.41699 q 0,0.32959 0.23804,0.56762 0.23804,0.23804 0.56763,0.23804 l 1.20849,0 q 0.40284,0 0.40284,0.40283 0,0.40284 -0.40284,0.40284 l -1.20849,0 q -0.67749,0 -1.14746,-0.46387 -0.46387,-0.46997 -0.46387,-1.14746 l 0,-2.41699 q 0,-0.67749 0.46387,-1.14136 0.46997,-0.46997 1.14746,-0.46997 l 1.20849,0 q 0.40284,0 0.40284,0.40283 0,0.40283 -0.40284,0.40283 l -1.20849,0 q -0.3357,0 -0.57373,0.23804 -0.23194,0.23193 -0.23194,0.56763 z" />
        <path
           inkscape:connector-curvature="0"
           id="path4435"
           style="font-style:normal;font-variant:normal;font-weight:normal;font-stretch:normal;font-size:12.5px;line-height:0%;font-family:ISOCTEUR;-inkscape-font-specification:ISOCTEUR;letter-spacing:0px;fill:#ffffff;fill-opacity:1;stroke:none;stroke-width:0.2035116;stroke-miterlimit:4;stroke-dasharray:none;stroke-opacity:1"
           d="m 348.15497,862.8028 0,-1.61133 q 0,-0.83618 0.58594,-1.42212 0.59204,-0.59204 1.42822,-0.59204 0.84839,0 1.42822,0.58593 0.58594,0.57984 0.58594,1.42823 l 0,1.61133 q 0,0.83618 -0.59204,1.42822 -0.58594,0.58594 -1.42212,0.58594 -0.83618,0 -1.42822,-0.58594 -0.58594,-0.59204 -0.58594,-1.42822 z m 3.22266,0 0,-1.61133 q 0,-0.50049 -0.35401,-0.85449 -0.354,-0.35401 -0.85449,-0.35401 -0.50049,0 -0.85449,0.35401 -0.354,0.354 -0.354,0.85449 l 0,1.61133 q 0,0.50659 0.3479,0.86059 0.354,0.3479 0.86059,0.3479 0.50049,0 0.85449,-0.354 0.35401,-0.35401 0.35401,-0.85449 z" />
        <path
           inkscape:connector-curvature="0"
           id="path4437"
           style="font-style:normal;font-variant:normal;font-weight:normal;font-stretch:normal;font-size:12.5px;line-height:0%;font-family:ISOCTEUR;-inkscape-font-specification:ISOCTEUR;letter-spacing:0px;fill:#ffffff;fill-opacity:1;stroke:none;stroke-width:0;stroke-miterlimit:4;stroke-dasharray:none;stroke-opacity:1"
           d="m 356.34023,859.17731 3.62549,0 q 0.67749,0 1.14136,0.46997 0.46997,0.46387 0.46997,1.14136 l 0,3.62548 q 0,0.40284 -0.40283,0.40284 -0.40283,0 -0.40283,-0.40284 l 0,-3.62548 q 0,-0.3418 -0.23194,-0.57374 -0.23193,-0.23193 -0.57373,-0.23193 l -0.80566,0 0,4.43115 q 0,0.40284 -0.40283,0.40284 -0.40284,0 -0.40284,-0.40284 l 0,-4.43115 -1.61132,0 0,4.43115 q 0,0.40284 -0.40284,0.40284 -0.40283,0 -0.40283,-0.40284 l 0,-4.83398 q 0,-0.40283 0.40283,-0.40283 z" />
      </g>
    </g>
  </g>
</svg>
